<?xml version="1.0" encoding="UTF-8"?>
<svg version="1.1" xmlns="http://www.w3.org/2000/svg" width="256" height="256">
<path d="M0 0 C11.22 0 22.44 0 34 0 C31.41691058 11.16944636 28.66658989 22.26205929 25.67578125 33.328125 C25.25638003 34.8879381 24.83721883 36.44781575 24.41827393 38.00775146 C23.28839362 42.21228364 22.15529189 46.41594137 21.021595 50.6194458 C19.81769026 55.08561277 18.61687942 59.55261147 17.41577148 64.01953125 C15.36134011 71.65860121 13.30518921 79.29720655 11.24804688 86.93554688 C7.90576647 99.34647694 4.56965471 111.75906205 1.234375 124.171875 C0.11028662 128.35514765 -1.01382446 132.53841419 -2.13793945 136.72167969 C-2.41309041 137.74563465 -2.68824137 138.76958961 -2.97173023 139.82457352 C-4.85076249 146.81708305 -6.73024415 153.80947165 -8.61010742 160.80175781 C-8.86394668 161.74599987 -9.11778593 162.69024193 -9.37931728 163.66309738 C-10.60451486 168.22031327 -11.83022137 172.7773911 -13.05705261 177.33416748 C-15.89443297 187.87452601 -15.89443297 187.87452601 -18.70912457 198.42095947 C-19.21791264 200.3355761 -19.72807525 202.2498273 -20.23829651 204.1640625 C-20.83255314 206.39507983 -21.42417547 208.62680131 -22.01255798 210.859375 C-22.26501785 211.80554688 -22.51747772 212.75171875 -22.77758789 213.7265625 C-22.99202042 214.53689941 -23.20645294 215.34723633 -23.42738342 216.18212891 C-24 218 -24 218 -25 219 C-27.52094076 219.08847743 -30.01430893 219.11527301 -32.53515625 219.09765625 C-33.66503212 219.09553383 -33.66503212 219.09553383 -34.81773376 219.09336853 C-37.2326956 219.08775376 -39.64756601 219.07519883 -42.0625 219.0625 C-43.69596221 219.0574869 -45.32942586 219.05292366 -46.96289062 219.04882812 C-50.97529585 219.03777954 -54.98763241 219.02050506 -59 219 C-53.75512578 198.47158679 -48.34475412 177.99381767 -42.79367065 157.54627991 C-41.74519868 153.6825897 -40.698807 149.81833622 -39.65234375 145.95410156 C-39.4343342 145.14908014 -39.21632465 144.34405872 -38.99170876 143.51464272 C-38.54092979 141.85008684 -38.09015793 140.18552903 -37.63939285 138.52096939 C-36.94201293 135.94605037 -36.24438497 133.37119865 -35.54672241 130.7963562 C-31.94112532 117.48724914 -28.34694644 104.17507751 -24.75658607 90.86185265 C-23.8343519 87.44219875 -22.91197158 84.0225843 -21.98954773 80.60298157 C-18.34390008 67.0878192 -18.34390008 67.0878192 -14.70004272 53.57217407 C-13.26785349 48.25857742 -11.83466054 42.94525241 -10.40077782 37.6321125 C-9.87158351 35.67049715 -9.34275321 33.70878355 -8.81432533 31.74696159 C-8.08226228 29.02928797 -7.3488885 26.31197103 -6.61523438 23.59472656 C-6.40852206 22.8260793 -6.20180975 22.05743204 -5.98883343 21.26549244 C-4.06610296 14.15383142 -2.02465975 7.08630912 0 0 Z " fill="#007ACC" transform="translate(78,17)"/>
<path d="M0 0 C7.92 0 15.84 0 24 0 C24.25 26.25 24.25 26.25 22 33 C22.80219971 32.44948975 23.60439941 31.89897949 24.4309082 31.33178711 C27.40384196 29.29560567 30.38586358 27.27310118 33.37084961 25.25463867 C34.66244193 24.37847363 35.95152633 23.49859983 37.23803711 22.61499023 C39.08583966 21.34680667 40.94219878 20.09215713 42.80078125 18.83984375 C43.37588943 18.44095444 43.95099762 18.04206512 44.54353333 17.63108826 C46.1809082 16.53881836 46.1809082 16.53881836 49 15 C52.69403861 16.2313462 52.90976237 17.12532019 54.69921875 20.47265625 C55.18583984 21.37177734 55.67246094 22.27089844 56.17382812 23.19726562 C56.67333984 24.14279297 57.17285156 25.08832031 57.6875 26.0625 C58.19861328 27.01189453 58.70972656 27.96128906 59.23632812 28.93945312 C60.49941894 31.28856594 61.75349911 33.64205426 63 36 C59.90071748 38.49952597 56.73355301 40.21316107 53.140625 41.91796875 C51.46806641 42.71557617 51.46806641 42.71557617 49.76171875 43.52929688 C48.60285156 44.07650391 47.44398438 44.62371094 46.25 45.1875 C45.07566406 45.74630859 43.90132813 46.30511719 42.69140625 46.88085938 C39.79612962 48.25788119 36.89896415 49.63076278 34 51 C48.4200019 58.65583795 48.4200019 58.65583795 63 66 C59.31484383 73.56147318 55.64192304 80.96678328 51 88 C41.62361702 82.06634943 32.31062776 76.03608107 23 70 C23.10828125 71.68802734 23.10828125 71.68802734 23.21875 73.41015625 C23.82574869 83.29741831 24.09711839 93.09392445 24 103 C16.08 103 8.16 103 0 103 C-0.1084382 91.93930399 0.31521337 81.04218434 1 70 C-12.365 78.91 -12.365 78.91 -26 88 C-28.5217503 85.4782497 -29.82405442 83.80270555 -31.48046875 80.76953125 C-31.92197266 79.96708984 -32.36347656 79.16464844 -32.81835938 78.33789062 C-33.27017578 77.50451172 -33.72199219 76.67113281 -34.1875 75.8125 C-34.65091797 74.96751953 -35.11433594 74.12253906 -35.59179688 73.25195312 C-36.73250781 71.17044966 -37.86837109 69.08645072 -39 67 C-35.96773286 64.57400679 -32.87650158 62.82820265 -29.39453125 61.1171875 C-28.32912109 60.58996094 -27.26371094 60.06273437 -26.16601562 59.51953125 C-25.05935547 58.97683594 -23.95269531 58.43414062 -22.8125 57.875 C-20.6098212 56.7907996 -18.40795179 55.70495272 -16.20703125 54.6171875 C-15.2322583 54.13878418 -14.25748535 53.66038086 -13.25317383 53.16748047 C-11.08979075 52.19063117 -11.08979075 52.19063117 -10 51 C-19.57 46.38 -29.14 41.76 -39 37 C-37.7625 34.48375 -36.525 31.9675 -35.25 29.375 C-34.86875977 28.59431152 -34.48751953 27.81362305 -34.09472656 27.00927734 C-31.99493001 22.77637119 -29.71091939 18.87099751 -27 15 C-23.02079009 16.42908576 -19.76373523 18.33566503 -16.26171875 20.6953125 C-15.19501953 21.41074219 -14.12832031 22.12617187 -13.02929688 22.86328125 C-11.91529633 23.61708665 -10.80136489 24.37099417 -9.6875 25.125 C-8.55432318 25.88714522 -7.42086235 26.64886836 -6.28710938 27.41015625 C-3.5219185 29.26930586 -0.75969621 31.13270814 2 33 C1.67 32.01 1.34 31.02 1 30 C-0.03800852 20.00436236 -0.09559628 10.03760958 0 0 Z " fill="#0079CB" transform="translate(173,26)"/>
</svg>
